<svg width="1600" height="1000" viewBox="0 0 1600 1000" fill="none" xmlns="http://www.w3.org/2000/svg">
  <rect width="1600" height="1000" rx="24" fill="#F5F5F7"/>
  <rect x="140" y="140" width="1320" height="720" rx="36" fill="#FFFFFF" stroke="#E5E5EA" stroke-width="2"/>
  <rect x="200" y="200" width="1200" height="44" rx="22" fill="#F2F2F7"/>
  <rect x="200" y="280" width="360" height="360" rx="28" fill="#F6F6F8"/>
  <rect x="620" y="280" width="360" height="360" rx="28" fill="#F6F6F8"/>
  <rect x="1040" y="280" width="360" height="360" rx="28" fill="#F6F6F8"/>
  <rect x="200" y="660" width="220" height="24" rx="12" fill="#D1D1D6"/>
  <rect x="620" y="660" width="220" height="24" rx="12" fill="#D1D1D6"/>
  <rect x="1040" y="660" width="220" height="24" rx="12" fill="#D1D1D6"/>
  <rect x="200" y="700" width="140" height="36" rx="18" fill="#0071E3"/>
  <rect x="620" y="700" width="140" height="36" rx="18" fill="#0071E3"/>
  <rect x="1040" y="700" width="140" height="36" rx="18" fill="#0071E3"/>
</svg>
